{
	"asset":{
		"generator":"Khronos glTF Blender I/O v4.3.47",
		"version":"2.0"
	},
	"scene":0,
	"scenes":[
		{
			"name":"Scene",
			"nodes":[
				8
			]
		}
	],
	"nodes":[
		{
			"mesh":0,
			"name":"Object006_Material #294_0"
		},
		{
			"children":[
				0
			],
			"name":"Object006",
			"rotation":[
				-0.70710688829422,
				0,
				0,
				0.7071066498756409
			],
			"translation":[
				0,
				-4.7602458000183105,
				0
			]
		},
		{
			"mesh":1,
			"name":"Object007_Material #295_0"
		},
		{
			"children":[
				2
			],
			"name":"Object007",
			"rotation":[
				-0.70710688829422,
				0,
				0,
				0.7071066498756409
			],
			"translation":[
				0,
				-4.7602458000183105,
				0
			]
		},
		{
			"mesh":2,
			"name":"Plane001_Material #316_0",
			"translation":[
				0,
				-3.814697265625e-06,
				0
			]
		},
		{
			"children":[
				4
			],
			"name":"Plane001",
			"rotation":[
				-0.70710688829422,
				0,
				0,
				0.7071066498756409
			],
			"translation":[
				2.13043212890625,
				0,
				-46.352294921875
			]
		},
		{
			"children":[
				1,
				3,
				5
			],
			"name":"RootNode"
		},
		{
			"children":[
				6
			],
			"name":"oldcar.FBX",
			"rotation":[
				0.70710688829422,
				0,
				0,
				0.7071066498756409
			]
		},
		{
			"children":[
				7
			],
			"name":"Sketchfab_model",
			"rotation":[
				-0.7071069478988647,
				0,
				0,
				0.7071066498756409
			],
			"scale":[
				0.46192467212677,
				0.4619247317314148,
				0.4619247317314148
			]
		}
	],
	"materials":[
		{
			"doubleSided":true,
			"name":"Material_294",
			"normalTexture":{
				"index":0
			},
			"occlusionTexture":{
				"index":1
			},
			"pbrMetallicRoughness":{
				"baseColorTexture":{
					"index":2
				},
				"metallicRoughnessTexture":{
					"index":1
				}
			}
		},
		{
			"alphaMode":"BLEND",
			"doubleSided":true,
			"name":"Material_295",
			"normalTexture":{
				"index":3
			},
			"occlusionTexture":{
				"index":4
			},
			"pbrMetallicRoughness":{
				"baseColorTexture":{
					"index":5
				},
				"metallicRoughnessTexture":{
					"index":4
				}
			}
		},
		{
			"alphaMode":"BLEND",
			"doubleSided":true,
			"name":"Material_316",
			"pbrMetallicRoughness":{
				"baseColorTexture":{
					"index":6
				},
				"metallicFactor":0
			}
		}
	],
	"meshes":[
		{
			"name":"Object006_Material #294_0",
			"primitives":[
				{
					"attributes":{
						"POSITION":0,
						"NORMAL":1,
						"TEXCOORD_0":2
					},
					"indices":3,
					"material":0
				}
			]
		},
		{
			"name":"Object007_Material #295_0",
			"primitives":[
				{
					"attributes":{
						"POSITION":4,
						"NORMAL":5,
						"TEXCOORD_0":6,
						"TEXCOORD_1":7
					},
					"indices":8,
					"material":1
				}
			]
		},
		{
			"name":"Plane001_Material #316_0",
			"primitives":[
				{
					"attributes":{
						"POSITION":9,
						"NORMAL":10,
						"TEXCOORD_0":11
					},
					"indices":12,
					"material":2
				}
			]
		}
	],
	"textures":[
		{
			"sampler":0,
			"source":0
		},
		{
			"sampler":0,
			"source":1
		},
		{
			"sampler":0,
			"source":2
		},
		{
			"sampler":0,
			"source":0
		},
		{
			"sampler":0,
			"source":1
		},
		{
			"sampler":0,
			"source":3
		},
		{
			"sampler":0,
			"source":4
		}
	],
	"images":[
		{
			"mimeType":"image/png",
			"name":"Material_294_normal",
			"uri":"textures/Material_294_normal.png"
		},
		{
			"mimeType":"image/png",
			"name":"Material_294_metallicRoughness",
			"uri":"textures/Material_294_metallicRoughness.png"
		},
		{
			"mimeType":"image/png",
			"name":"Material_294_baseColor",
			"uri":"textures/Material_294_baseColor.png"
		},
		{
			"mimeType":"image/png",
			"name":"Material_295_baseColor",
			"uri":"textures/Material_295_baseColor.png"
		},
		{
			"mimeType":"image/png",
			"name":"Material_316_baseColor",
			"uri":"textures/Material_316_baseColor.png"
		}
	],
	"accessors":[
		{
			"bufferView":0,
			"componentType":5126,
			"count":2981,
			"max":[
				129.85162353515625,
				390.18011474609375,
				189.60618591308594
			],
			"min":[
				-130.06381225585938,
				-333.3890380859375,
				5.686756134033203
			],
			"type":"VEC3"
		},
		{
			"bufferView":1,
			"componentType":5126,
			"count":2981,
			"type":"VEC3"
		},
		{
			"bufferView":2,
			"componentType":5126,
			"count":2981,
			"type":"VEC2"
		},
		{
			"bufferView":3,
			"componentType":5123,
			"count":9252,
			"type":"SCALAR"
		},
		{
			"bufferView":4,
			"componentType":5126,
			"count":62,
			"max":[
				104.2876968383789,
				246.09225463867188,
				175.285400390625
			],
			"min":[
				-104.49987030029297,
				-133.18006896972656,
				122.31787109375
			],
			"type":"VEC3"
		},
		{
			"bufferView":5,
			"componentType":5126,
			"count":62,
			"type":"VEC3"
		},
		{
			"bufferView":6,
			"componentType":5126,
			"count":62,
			"type":"VEC2"
		},
		{
			"bufferView":7,
			"componentType":5126,
			"count":62,
			"type":"VEC2"
		},
		{
			"bufferView":8,
			"componentType":5123,
			"count":138,
			"type":"SCALAR"
		},
		{
			"bufferView":9,
			"componentType":5126,
			"count":4,
			"max":[
				528.2398071289062,
				663.59375,
				0
			],
			"min":[
				-528.2398071289062,
				-663.59375,
				0
			],
			"type":"VEC3"
		},
		{
			"bufferView":10,
			"componentType":5126,
			"count":4,
			"type":"VEC3"
		},
		{
			"bufferView":11,
			"componentType":5126,
			"count":4,
			"type":"VEC2"
		},
		{
			"bufferView":12,
			"componentType":5123,
			"count":6,
			"type":"SCALAR"
		}
	],
	"bufferViews":[
		{
			"buffer":0,
			"byteLength":35772,
			"byteOffset":0,
			"target":34962
		},
		{
			"buffer":0,
			"byteLength":35772,
			"byteOffset":35772,
			"target":34962
		},
		{
			"buffer":0,
			"byteLength":23848,
			"byteOffset":71544,
			"target":34962
		},
		{
			"buffer":0,
			"byteLength":18504,
			"byteOffset":95392,
			"target":34963
		},
		{
			"buffer":0,
			"byteLength":744,
			"byteOffset":113896,
			"target":34962
		},
		{
			"buffer":0,
			"byteLength":744,
			"byteOffset":114640,
			"target":34962
		},
		{
			"buffer":0,
			"byteLength":496,
			"byteOffset":115384,
			"target":34962
		},
		{
			"buffer":0,
			"byteLength":496,
			"byteOffset":115880,
			"target":34962
		},
		{
			"buffer":0,
			"byteLength":276,
			"byteOffset":116376,
			"target":34963
		},
		{
			"buffer":0,
			"byteLength":48,
			"byteOffset":116652,
			"target":34962
		},
		{
			"buffer":0,
			"byteLength":48,
			"byteOffset":116700,
			"target":34962
		},
		{
			"buffer":0,
			"byteLength":32,
			"byteOffset":116748,
			"target":34962
		},
		{
			"buffer":0,
			"byteLength":12,
			"byteOffset":116780,
			"target":34963
		}
	],
	"samplers":[
		{
			"magFilter":9729,
			"minFilter":9987
		}
	],
	"buffers":[
		{
			"byteLength":116792,
			"uri":"car.bin"
		}
	]
}
