{
	"asset":{
		"generator":"Khronos glTF Blender I/O v4.3.47",
		"version":"2.0"
	},
	"scene":0,
	"scenes":[
		{
			"name":"Scene",
			"nodes":[
				4
			]
		}
	],
	"nodes":[
		{
			"mesh":0,
			"name":"pPlane1_lambert1_0"
		},
		{
			"children":[
				0
			],
			"name":"pPlane1",
			"scale":[
				23.99899673461914,
				23.99899673461914,
				23.99899673461914
			]
		},
		{
			"children":[
				1
			],
			"name":"RootNode"
		},
		{
			"children":[
				2
			],
			"name":"30855b011f074aea941e1037e2133dca.fbx",
			"rotation":[
				0.70710688829422,
				0,
				0,
				0.7071066498756409
			]
		},
		{
			"children":[
				3
			],
			"name":"Sketchfab_model",
			"rotation":[
				-0.70710688829422,
				0,
				0,
				0.7071066498756409
			],
			"scale":[
				-6.908482551574707,
				-6.908483505249023,
				-6.908483505249023
			]
		}
	],
	"materials":[
		{
			"doubleSided":true,
			"name":"lambert1",
			"normalTexture":{
				"index":0
			},
			"occlusionTexture":{
				"index":1,
				"strength":0.361471027135849
			},
			"pbrMetallicRoughness":{
				"baseColorTexture":{
					"index":2
				},
				"metallicFactor":0.05659298598766327,
				"metallicRoughnessTexture":{
					"index":1
				}
			}
		}
	],
	"meshes":[
		{
			"name":"pPlane1_lambert1_0",
			"primitives":[
				{
					"attributes":{
						"POSITION":0,
						"NORMAL":1,
						"TEXCOORD_0":2
					},
					"indices":3,
					"material":0
				}
			]
		}
	],
	"textures":[
		{
			"sampler":0,
			"source":0
		},
		{
			"sampler":0,
			"source":1
		},
		{
			"sampler":0,
			"source":2
		}
	],
	"images":[
		{
			"mimeType":"image/png",
			"name":"lambert1_normal",
			"uri":"textures/lambert1_normal.png"
		},
		{
			"mimeType":"image/png",
			"name":"lambert1_metallicRoughness",
			"uri":"textures/lambert1_metallicRoughness.png"
		},
		{
			"mimeType":"image/png",
			"name":"lambert1_baseColor",
			"uri":"textures/lambert1_baseColor.png"
		}
	],
	"accessors":[
		{
			"bufferView":0,
			"componentType":5126,
			"count":676,
			"max":[
				0.5,
				1.1102230246251565e-16,
				0.5
			],
			"min":[
				-0.5,
				-1.1102230246251565e-16,
				-0.5
			],
			"type":"VEC3"
		},
		{
			"bufferView":1,
			"componentType":5126,
			"count":676,
			"type":"VEC3"
		},
		{
			"bufferView":2,
			"componentType":5126,
			"count":676,
			"type":"VEC2"
		},
		{
			"bufferView":3,
			"componentType":5123,
			"count":3750,
			"type":"SCALAR"
		}
	],
	"bufferViews":[
		{
			"buffer":0,
			"byteLength":8112,
			"byteOffset":0,
			"target":34962
		},
		{
			"buffer":0,
			"byteLength":8112,
			"byteOffset":8112,
			"target":34962
		},
		{
			"buffer":0,
			"byteLength":5408,
			"byteOffset":16224,
			"target":34962
		},
		{
			"buffer":0,
			"byteLength":7500,
			"byteOffset":21632,
			"target":34963
		}
	],
	"samplers":[
		{
			"magFilter":9729,
			"minFilter":9987
		}
	],
	"buffers":[
		{
			"byteLength":29132,
			"uri":"ground.bin"
		}
	]
}
