{
	"asset":{
		"generator":"Khronos glTF Blender I/O v4.3.47",
		"version":"2.0"
	},
	"extensionsUsed":[
		"KHR_materials_transmission",
		"KHR_materials_emissive_strength"
	],
	"scene":0,
	"scenes":[
		{
			"name":"Scene",
			"nodes":[
				12
			]
		}
	],
	"nodes":[
		{
			"name":"Object_4",
			"translation":[
				-2.47955322265625e-05,
				0,
				0
			]
		},
		{
			"children":[
				0
			],
			"name":"CINEMA_4D_Editor",
			"rotation":[
				-0.04216883331537247,
				0.8212540149688721,
				-0.029178055003285408,
				0.568253755569458
			],
			"translation":[
				217.67642211914062,
				274.45111083984375,
				499.5806884765625
			]
		},
		{
			"mesh":0,
			"name":"Handel_Base_0",
			"translation":[
				-1.534978400741238e-05,
				-5.598879397439305e-06,
				0
			]
		},
		{
			"children":[
				2
			],
			"name":"Handel",
			"rotation":[
				0,
				0,
				0.970619261264801,
				0.2406206578016281
			],
			"translation":[
				-0.1536729335784912,
				22.311981201171875,
				-0.09399411827325821
			]
		},
		{
			"mesh":1,
			"name":"Lantern_Base_0"
		},
		{
			"mesh":2,
			"name":"Lantern_GLASS_0"
		},
		{
			"mesh":3,
			"name":"Lantern_LIGHT_0"
		},
		{
			"children":[
				3,
				4,
				5,
				6
			],
			"name":"Lantern",
			"rotation":[
				0,
				-0.7071068286895752,
				0,
				0.7071067094802856
			],
			"translation":[
				81.17134857177734,
				260.70306396484375,
				0.008034000173211098
			]
		},
		{
			"mesh":4,
			"name":"Wood_Wood_0"
		},
		{
			"children":[
				8
			],
			"name":"Wood",
			"translation":[
				21.49202537536621,
				89.2338638305664,
				0
			]
		},
		{
			"children":[
				1,
				7,
				9
			],
			"name":"RootNode"
		},
		{
			"children":[
				10
			],
			"name":"92d8d6eaf041458cb7c19319c2237d74.fbx",
			"rotation":[
				0.70710688829422,
				0,
				0,
				0.7071066498756409
			],
			"scale":[
				0.009999999776482582,
				0.010000000707805157,
				0.010000000707805157
			]
		},
		{
			"children":[
				11
			],
			"name":"Sketchfab_model",
			"rotation":[
				-0.70710688829422,
				0,
				0,
				0.7071066498756409
			]
		}
	],
	"materials":[
		{
			"doubleSided":true,
			"name":"Base",
			"pbrMetallicRoughness":{
				"baseColorTexture":{
					"index":0
				},
				"metallicRoughnessTexture":{
					"index":1
				}
			}
		},
		{
			"alphaMode":"BLEND",
			"doubleSided":true,
			"extensions":{
				"KHR_materials_transmission":{
					"transmissionFactor":0.9521149396896362
				}
			},
			"name":"GLASS",
			"pbrMetallicRoughness":{
				"baseColorFactor":[
					0.6038269996643066,
					0.6038269996643066,
					0.6038269996643066,
					0.25
				],
				"roughnessFactor":0.04756828397512436
			}
		},
		{
			"doubleSided":true,
			"emissiveFactor":[
				1,
				0.8520745038986206,
				0
			],
			"extensions":{
				"KHR_materials_emissive_strength":{
					"emissiveStrength":10
				}
			},
			"name":"LIGHT",
			"pbrMetallicRoughness":{
				"baseColorFactor":[
					0.52252197265625,
					0.52252197265625,
					0.52252197265625,
					1
				],
				"metallicFactor":0,
				"roughnessFactor":0
			}
		},
		{
			"doubleSided":true,
			"name":"Wood",
			"normalTexture":{
				"index":2
			},
			"pbrMetallicRoughness":{
				"baseColorTexture":{
					"index":3
				},
				"metallicRoughnessTexture":{
					"index":4
				}
			}
		}
	],
	"meshes":[
		{
			"name":"Handel_Base_0",
			"primitives":[
				{
					"attributes":{
						"POSITION":0,
						"NORMAL":1,
						"TEXCOORD_0":2
					},
					"indices":3,
					"material":0
				}
			]
		},
		{
			"name":"Lantern_Base_0",
			"primitives":[
				{
					"attributes":{
						"POSITION":4,
						"NORMAL":5,
						"TEXCOORD_0":6
					},
					"indices":7,
					"material":0
				}
			]
		},
		{
			"name":"Lantern_GLASS_0",
			"primitives":[
				{
					"attributes":{
						"POSITION":8,
						"NORMAL":9,
						"TEXCOORD_0":10
					},
					"indices":11,
					"material":1
				}
			]
		},
		{
			"name":"Lantern_LIGHT_0",
			"primitives":[
				{
					"attributes":{
						"POSITION":12,
						"NORMAL":13,
						"TEXCOORD_0":14
					},
					"indices":15,
					"material":2
				}
			]
		},
		{
			"name":"Wood_Wood_0",
			"primitives":[
				{
					"attributes":{
						"POSITION":16,
						"NORMAL":17,
						"TEXCOORD_0":18
					},
					"indices":19,
					"material":3
				}
			]
		}
	],
	"textures":[
		{
			"sampler":0,
			"source":0
		},
		{
			"sampler":0,
			"source":1
		},
		{
			"sampler":0,
			"source":2
		},
		{
			"sampler":0,
			"source":3
		},
		{
			"sampler":0,
			"source":4
		}
	],
	"images":[
		{
			"mimeType":"image/png",
			"name":"Base_baseColor",
			"uri":"textures/Base_baseColor.png"
		},
		{
			"mimeType":"image/png",
			"name":"Base_metallicRoughness",
			"uri":"textures/Base_metallicRoughness.png"
		},
		{
			"mimeType":"image/png",
			"name":"Wood_normal",
			"uri":"textures/Wood_normal.png"
		},
		{
			"mimeType":"image/png",
			"name":"Wood_baseColor",
			"uri":"textures/Wood_baseColor.png"
		},
		{
			"mimeType":"image/png",
			"name":"Wood_metallicRoughness",
			"uri":"textures/Wood_metallicRoughness.png"
		}
	],
	"accessors":[
		{
			"bufferView":0,
			"componentType":5126,
			"count":754,
			"max":[
				8.40287971496582,
				0.8039800524711609,
				6.093160152435303
			],
			"min":[
				-0.7298611402511597,
				-16.741376876831055,
				-6.093160152435303
			],
			"type":"VEC3"
		},
		{
			"bufferView":1,
			"componentType":5126,
			"count":754,
			"type":"VEC3"
		},
		{
			"bufferView":2,
			"componentType":5126,
			"count":754,
			"type":"VEC2"
		},
		{
			"bufferView":3,
			"componentType":5123,
			"count":4512,
			"type":"SCALAR"
		},
		{
			"bufferView":4,
			"componentType":5126,
			"count":19185,
			"max":[
				6.607300281524658,
				31.356571197509766,
				7.119041442871094
			],
			"min":[
				-6.607300281524658,
				0,
				-7.119041442871094
			],
			"type":"VEC3"
		},
		{
			"bufferView":5,
			"componentType":5126,
			"count":19185,
			"type":"VEC3"
		},
		{
			"bufferView":6,
			"componentType":5126,
			"count":19185,
			"type":"VEC2"
		},
		{
			"bufferView":7,
			"componentType":5123,
			"count":90702,
			"type":"SCALAR"
		},
		{
			"bufferView":8,
			"componentType":5126,
			"count":780,
			"max":[
				3.864539861679077,
				18.018024444580078,
				4.048390865325928
			],
			"min":[
				-4.3370819091796875,
				6.312184810638428,
				-4.153230667114258
			],
			"type":"VEC3"
		},
		{
			"bufferView":9,
			"componentType":5126,
			"count":780,
			"type":"VEC3"
		},
		{
			"bufferView":10,
			"componentType":5126,
			"count":780,
			"type":"VEC2"
		},
		{
			"bufferView":11,
			"componentType":5123,
			"count":3840,
			"type":"SCALAR"
		},
		{
			"bufferView":12,
			"componentType":5126,
			"count":465,
			"max":[
				1.1090978384017944,
				13.667683601379395,
				1.2922911643981934
			],
			"min":[
				-1.5816153287887573,
				7.741351127624512,
				-1.3984158039093018
			],
			"type":"VEC3"
		},
		{
			"bufferView":13,
			"componentType":5126,
			"count":465,
			"type":"VEC3"
		},
		{
			"bufferView":14,
			"componentType":5126,
			"count":465,
			"type":"VEC2"
		},
		{
			"bufferView":15,
			"componentType":5123,
			"count":792,
			"type":"SCALAR"
		},
		{
			"bufferView":16,
			"componentType":5126,
			"count":3678,
			"max":[
				73.38298034667969,
				267.70159912109375,
				8.05076789855957
			],
			"min":[
				-30.398929595947266,
				-89.2338638305664,
				-8.05076789855957
			],
			"type":"VEC3"
		},
		{
			"bufferView":17,
			"componentType":5126,
			"count":3678,
			"type":"VEC3"
		},
		{
			"bufferView":18,
			"componentType":5126,
			"count":3678,
			"type":"VEC2"
		},
		{
			"bufferView":19,
			"componentType":5123,
			"count":12390,
			"type":"SCALAR"
		}
	],
	"bufferViews":[
		{
			"buffer":0,
			"byteLength":9048,
			"byteOffset":0,
			"target":34962
		},
		{
			"buffer":0,
			"byteLength":9048,
			"byteOffset":9048,
			"target":34962
		},
		{
			"buffer":0,
			"byteLength":6032,
			"byteOffset":18096,
			"target":34962
		},
		{
			"buffer":0,
			"byteLength":9024,
			"byteOffset":24128,
			"target":34963
		},
		{
			"buffer":0,
			"byteLength":230220,
			"byteOffset":33152,
			"target":34962
		},
		{
			"buffer":0,
			"byteLength":230220,
			"byteOffset":263372,
			"target":34962
		},
		{
			"buffer":0,
			"byteLength":153480,
			"byteOffset":493592,
			"target":34962
		},
		{
			"buffer":0,
			"byteLength":181404,
			"byteOffset":647072,
			"target":34963
		},
		{
			"buffer":0,
			"byteLength":9360,
			"byteOffset":828476,
			"target":34962
		},
		{
			"buffer":0,
			"byteLength":9360,
			"byteOffset":837836,
			"target":34962
		},
		{
			"buffer":0,
			"byteLength":6240,
			"byteOffset":847196,
			"target":34962
		},
		{
			"buffer":0,
			"byteLength":7680,
			"byteOffset":853436,
			"target":34963
		},
		{
			"buffer":0,
			"byteLength":5580,
			"byteOffset":861116,
			"target":34962
		},
		{
			"buffer":0,
			"byteLength":5580,
			"byteOffset":866696,
			"target":34962
		},
		{
			"buffer":0,
			"byteLength":3720,
			"byteOffset":872276,
			"target":34962
		},
		{
			"buffer":0,
			"byteLength":1584,
			"byteOffset":875996,
			"target":34963
		},
		{
			"buffer":0,
			"byteLength":44136,
			"byteOffset":877580,
			"target":34962
		},
		{
			"buffer":0,
			"byteLength":44136,
			"byteOffset":921716,
			"target":34962
		},
		{
			"buffer":0,
			"byteLength":29424,
			"byteOffset":965852,
			"target":34962
		},
		{
			"buffer":0,
			"byteLength":24780,
			"byteOffset":995276,
			"target":34963
		}
	],
	"samplers":[
		{
			"magFilter":9729,
			"minFilter":9987
		}
	],
	"buffers":[
		{
			"byteLength":1020056,
			"uri":"lantern_lamppost.bin"
		}
	]
}
