{
  "accessors": [
    {
      "bufferView": 2,
      "componentType": 5126,
      "count": 65532,
      "max": [
        4.87716007232666,
        2.8825626373291016,
        6.74179744720459
      ],
      "min": [
        -4.9261155128479,
        -2.5797600746154785,
        -5.084499359130859
      ],
      "type": "VEC3"
    },
    {
      "bufferView": 2,
      "byteOffset": 786384,
      "componentType": 5126,
      "count": 65532,
      "max": [
        1.0,
        0.9999998807907104,
        1.0
      ],
      "min": [
        -0.9999999403953552,
        -0.9999998807907104,
        -1.0
      ],
      "type": "VEC3"
    },
    {
      "bufferView": 3,
      "componentType": 5126,
      "count": 65532,
      "max": [
        1.0,
        1.0,
        1.0,
        1.0
      ],
      "min": [
        -0.999999463558197,
        -1.0,
        -0.9999963641166687,
        -1.0
      ],
      "type": "VEC4"
    },
    {
      "bufferView": 1,
      "componentType": 5126,
      "count": 65532,
      "max": [
        0.9925587773323059,
        0.9990234375
      ],
      "min": [
        0.0009765625,
        0.0009765625
      ],
      "type": "VEC2"
    },
    {
      "bufferView": 0,
      "componentType": 5125,
      "count": 330642,
      "type": "SCALAR"
    },
    {
      "bufferView": 2,
      "byteOffset": 1572768,
      "componentType": 5126,
      "count": 42584,
      "max": [
        4.874009609222412,
        2.877631664276123,
        6.598167419433594
      ],
      "min": [
        -4.925721168518066,
        -2.5797600746154785,
        -5.078575134277344
      ],
      "type": "VEC3"
    },
    {
      "bufferView": 2,
      "byteOffset": 2083776,
      "componentType": 5126,
      "count": 42584,
      "max": [
        1.0,
        0.9999991655349731,
        1.0
      ],
      "min": [
        -1.0,
        -0.9999995231628418,
        -1.0
      ],
      "type": "VEC3"
    },
    {
      "bufferView": 3,
      "byteOffset": 1048512,
      "componentType": 5126,
      "count": 42584,
      "max": [
        1.0,
        0.9999990463256836,
        0.9999986886978149,
        1.0
      ],
      "min": [
        -1.0,
        -1.0,
        -0.9999979138374329,
        -1.0
      ],
      "type": "VEC4"
    },
    {
      "bufferView": 1,
      "byteOffset": 524256,
      "componentType": 5126,
      "count": 42584,
      "max": [
        0.9920236468315125,
        0.9909129738807678
      ],
      "min": [
        0.0009765625,
        0.0009765625
      ],
      "type": "VEC2"
    },
    {
      "bufferView": 0,
      "byteOffset": 1322568,
      "componentType": 5125,
      "count": 182478,
      "type": "SCALAR"
    }
  ],
  "asset": {
    "extras": {
      "author": "Francesco Coldesina (https://sketchfab.com/topfrank2013)",
      "license": "CC-BY-4.0 (http://creativecommons.org/licenses/by/4.0/)",
      "source": "https://sketchfab.com/3d-models/cupolo-opt-cdf747dc16044cb7a93ac8e60417d8fa",
      "title": "Cupolo_OPT"
    },
    "generator": "Sketchfab-16.59.0",
    "version": "2.0"
  },
  "bufferViews": [
    {
      "buffer": 0,
      "byteLength": 2052480,
      "name": "floatBufferViews",
      "target": 34963
    },
    {
      "buffer": 0,
      "byteLength": 864928,
      "byteOffset": 2052480,
      "byteStride": 8,
      "name": "floatBufferViews",
      "target": 34962
    },
    {
      "buffer": 0,
      "byteLength": 2594784,
      "byteOffset": 2917408,
      "byteStride": 12,
      "name": "floatBufferViews",
      "target": 34962
    },
    {
      "buffer": 0,
      "byteLength": 1729856,
      "byteOffset": 5512192,
      "byteStride": 16,
      "name": "floatBufferViews",
      "target": 34962
    }
  ],
  "buffers": [
    {
      "byteLength": 7242048,
      "uri": "scene.bin"
    }
  ],
  "images": [
    {
      "uri": "textures/CupoloOPTDUE_baseColor.jpeg"
    },
    {
      "uri": "textures/CupoloOPTDUE_metallicRoughness.png"
    },
    {
      "uri": "textures/CupoloOPTDUE_normal.png"
    }
  ],
  "materials": [
    {
      "doubleSided": true,
      "name": "CupoloOPTDUE",
      "normalTexture": {
        "index": 2
      },
      "occlusionTexture": {
        "index": 1
      },
      "pbrMetallicRoughness": {
        "baseColorTexture": {
          "index": 0
        },
        "metallicRoughnessTexture": {
          "index": 1
        }
      }
    }
  ],
  "meshes": [
    {
      "name": "PM3D_Cupolo_LR_CupoloOPTDUE_0",
      "primitives": [
        {
          "attributes": {
            "NORMAL": 1,
            "POSITION": 0,
            "TANGENT": 2,
            "TEXCOORD_0": 3
          },
          "indices": 4,
          "material": 0,
          "mode": 4
        }
      ]
    },
    {
      "name": "PM3D_Cupolo_LR_CupoloOPTDUE_0",
      "primitives": [
        {
          "attributes": {
            "NORMAL": 6,
            "POSITION": 5,
            "TANGENT": 7,
            "TEXCOORD_0": 8
          },
          "indices": 9,
          "material": 0,
          "mode": 4
        }
      ]
    }
  ],
  "nodes": [
    {
      "children": [
        1
      ],
      "matrix": [
        1.0,
        0.0,
        0.0,
        0.0,
        0.0,
        2.220446049250313e-16,
        -1.0,
        0.0,
        0.0,
        1.0,
        2.220446049250313e-16,
        0.0,
        0.0,
        0.0,
        0.0,
        1.0
      ],
      "name": "Sketchfab_model"
    },
    {
      "children": [
        2
      ],
      "matrix": [
        0.02539999969303608,
        0.0,
        0.0,
        0.0,
        0.0,
        0.0,
        0.02539999969303608,
        0.0,
        0.0,
        -0.02539999969303608,
        0.0,
        0.0,
        0.0,
        0.0,
        0.0,
        1.0
      ],
      "name": "Cupolo_Mega_OPT_SOLO.fbx"
    },
    {
      "children": [
        3
      ],
      "name": "RootNode"
    },
    {
      "children": [
        4
      ],
      "matrix": [
        1.0,
        0.0,
        0.0,
        0.0,
        0.0,
        2.220446049250313e-16,
        -1.0,
        0.0,
        0.0,
        1.0,
        2.220446049250313e-16,
        0.0,
        0.0,
        -0.0003769397735595703,
        0.0,
        1.0
      ],
      "name": "PM3D_Cupolo_LR"
    },
    {
      "children": [
        5,
        6
      ],
      "matrix": [
        1.0,
        0.0,
        -0.0,
        0.0,
        0.0,
        1.0,
        0.0,
        0.0,
        0.0,
        0.0,
        1.0,
        0.0,
        0.024477720260620117,
        -0.15140140056610107,
        5.084499359130859,
        1.0
      ],
      "name": "Object_4"
    },
    {
      "mesh": 0,
      "name": "PM3D_Cupolo_LR_CupoloOPTDUE_0"
    },
    {
      "mesh": 1,
      "name": "PM3D_Cupolo_LR_CupoloOPTDUE_0"
    }
  ],
  "samplers": [
    {
      "magFilter": 9729,
      "minFilter": 9987,
      "wrapS": 10497,
      "wrapT": 10497
    }
  ],
  "scene": 0,
  "scenes": [
    {
      "name": "Sketchfab_Scene",
      "nodes": [
        0
      ]
    }
  ],
  "textures": [
    {
      "sampler": 0,
      "source": 0
    },
    {
      "sampler": 0,
      "source": 1
    },
    {
      "sampler": 0,
      "source": 2
    }
  ]
}
