{
	"asset":{
		"generator":"Khronos glTF Blender I/O v4.3.47",
		"version":"2.0"
	},
	"scene":0,
	"scenes":[
		{
			"name":"Scene",
			"nodes":[
				3,
				4
			]
		}
	],
	"nodes":[
		{
			"mesh":0,
			"name":"Sphere"
		},
		{
			"mesh":1,
			"name":"Sphere.001",
			"scale":[
				0.9850910902023315,
				0.9850910902023315,
				0.9850910902023315
			]
		},
		{
			"mesh":2,
			"name":"Sphere.002",
			"scale":[
				0.9644651412963867,
				0.9644651412963867,
				0.9644651412963867
			]
		},
		{
			"children":[
				0,
				1,
				2
			],
			"mesh":3,
			"name":"Cube"
		},
		{
			"mesh":4,
			"name":"Sphere.003",
			"scale":[
				0.8856363892555237,
				0.8856363892555237,
				0.8856363892555237
			]
		}
	],
	"animations":[
		{
			"channels":[
				{
					"sampler":0,
					"target":{
						"node":3,
						"path":"rotation"
					}
				}
			],
			"name":"CubeAction",
			"samplers":[
				{
					"input":18,
					"interpolation":"LINEAR",
					"output":19
				}
			]
		},
		{
			"channels":[
				{
					"sampler":0,
					"target":{
						"node":0,
						"path":"rotation"
					}
				}
			],
			"name":"SphereAction",
			"samplers":[
				{
					"input":18,
					"interpolation":"LINEAR",
					"output":20
				}
			]
		},
		{
			"channels":[
				{
					"sampler":0,
					"target":{
						"node":1,
						"path":"rotation"
					}
				}
			],
			"name":"SphereAction.002",
			"samplers":[
				{
					"input":18,
					"interpolation":"LINEAR",
					"output":21
				}
			]
		},
		{
			"channels":[
				{
					"sampler":0,
					"target":{
						"node":2,
						"path":"rotation"
					}
				}
			],
			"name":"SphereAction.004",
			"samplers":[
				{
					"input":18,
					"interpolation":"LINEAR",
					"output":22
				}
			]
		},
		{
			"channels":[
				{
					"sampler":0,
					"target":{
						"node":4,
						"path":"rotation"
					}
				}
			],
			"name":"Sphere.003Action",
			"samplers":[
				{
					"input":18,
					"interpolation":"LINEAR",
					"output":23
				}
			]
		}
	],
	"materials":[
		{
			"doubleSided":true,
			"name":"01",
			"pbrMetallicRoughness":{
				"baseColorFactor":[
					0.800000011920929,
					0.800000011920929,
					0.800000011920929,
					1
				],
				"metallicFactor":0,
				"roughnessFactor":0.5
			}
		},
		{
			"doubleSided":true,
			"name":"hide",
			"pbrMetallicRoughness":{
				"baseColorFactor":[
					0.800000011920929,
					0.800000011920929,
					0.800000011920929,
					1
				],
				"metallicFactor":0,
				"roughnessFactor":0.5
			}
		},
		{
			"doubleSided":true,
			"name":"02",
			"pbrMetallicRoughness":{
				"baseColorFactor":[
					0.800000011920929,
					0.800000011920929,
					0.800000011920929,
					1
				],
				"metallicFactor":0,
				"roughnessFactor":0.5
			}
		}
	],
	"meshes":[
		{
			"name":"Sphere",
			"primitives":[
				{
					"attributes":{
						"POSITION":0,
						"NORMAL":1,
						"TEXCOORD_0":2
					},
					"indices":3,
					"material":0
				}
			]
		},
		{
			"name":"Sphere.001",
			"primitives":[
				{
					"attributes":{
						"POSITION":4,
						"NORMAL":5,
						"TEXCOORD_0":6
					},
					"indices":3,
					"material":0
				}
			]
		},
		{
			"name":"Sphere.002",
			"primitives":[
				{
					"attributes":{
						"POSITION":7,
						"NORMAL":8,
						"TEXCOORD_0":9
					},
					"indices":3,
					"material":0
				}
			]
		},
		{
			"name":"Cube.001",
			"primitives":[
				{
					"attributes":{
						"POSITION":10,
						"NORMAL":11,
						"TEXCOORD_0":12
					},
					"indices":13,
					"material":1
				}
			]
		},
		{
			"name":"Sphere.004",
			"primitives":[
				{
					"attributes":{
						"POSITION":14,
						"NORMAL":15,
						"TEXCOORD_0":16
					},
					"indices":17,
					"material":2
				}
			]
		}
	],
	"accessors":[
		{
			"bufferView":0,
			"componentType":5126,
			"count":349226,
			"max":[
				0.9999614953994751,
				1,
				1.0000038146972656
			],
			"min":[
				-0.9999656081199646,
				-1,
				-1.0000078678131104
			],
			"type":"VEC3"
		},
		{
			"bufferView":1,
			"componentType":5126,
			"count":349226,
			"type":"VEC3"
		},
		{
			"bufferView":2,
			"componentType":5126,
			"count":349226,
			"type":"VEC2"
		},
		{
			"bufferView":3,
			"componentType":5125,
			"count":522900,
			"type":"SCALAR"
		},
		{
			"bufferView":4,
			"componentType":5126,
			"count":349226,
			"max":[
				0.9999614953994751,
				1,
				1.0000038146972656
			],
			"min":[
				-0.9999656081199646,
				-1,
				-1.0000078678131104
			],
			"type":"VEC3"
		},
		{
			"bufferView":5,
			"componentType":5126,
			"count":349226,
			"type":"VEC3"
		},
		{
			"bufferView":6,
			"componentType":5126,
			"count":349226,
			"type":"VEC2"
		},
		{
			"bufferView":7,
			"componentType":5126,
			"count":349226,
			"max":[
				0.9999614953994751,
				1,
				1.0000038146972656
			],
			"min":[
				-0.9999656081199646,
				-1,
				-1.0000078678131104
			],
			"type":"VEC3"
		},
		{
			"bufferView":8,
			"componentType":5126,
			"count":349226,
			"type":"VEC3"
		},
		{
			"bufferView":9,
			"componentType":5126,
			"count":349226,
			"type":"VEC2"
		},
		{
			"bufferView":10,
			"componentType":5126,
			"count":24,
			"max":[
				1,
				1,
				1
			],
			"min":[
				-1,
				-1,
				-1
			],
			"type":"VEC3"
		},
		{
			"bufferView":11,
			"componentType":5126,
			"count":24,
			"type":"VEC3"
		},
		{
			"bufferView":12,
			"componentType":5126,
			"count":24,
			"type":"VEC2"
		},
		{
			"bufferView":13,
			"componentType":5123,
			"count":36,
			"type":"SCALAR"
		},
		{
			"bufferView":14,
			"componentType":5126,
			"count":39800,
			"max":[
				0.9999998807907104,
				1,
				0.9999996423721313
			],
			"min":[
				-0.999999463558197,
				-1,
				-1
			],
			"type":"VEC3"
		},
		{
			"bufferView":15,
			"componentType":5126,
			"count":39800,
			"type":"VEC3"
		},
		{
			"bufferView":16,
			"componentType":5126,
			"count":39800,
			"type":"VEC2"
		},
		{
			"bufferView":17,
			"componentType":5123,
			"count":59400,
			"type":"SCALAR"
		},
		{
			"bufferView":18,
			"componentType":5126,
			"count":1000,
			"max":[
				20
			],
			"min":[
				0.02
			],
			"type":"SCALAR"
		},
		{
			"bufferView":19,
			"componentType":5126,
			"count":1000,
			"type":"VEC4"
		},
		{
			"bufferView":20,
			"componentType":5126,
			"count":1000,
			"type":"VEC4"
		},
		{
			"bufferView":21,
			"componentType":5126,
			"count":1000,
			"type":"VEC4"
		},
		{
			"bufferView":22,
			"componentType":5126,
			"count":1000,
			"type":"VEC4"
		},
		{
			"bufferView":23,
			"componentType":5126,
			"count":1000,
			"type":"VEC4"
		}
	],
	"bufferViews":[
		{
			"buffer":0,
			"byteLength":4190712,
			"byteOffset":0,
			"target":34962
		},
		{
			"buffer":0,
			"byteLength":4190712,
			"byteOffset":4190712,
			"target":34962
		},
		{
			"buffer":0,
			"byteLength":2793808,
			"byteOffset":8381424,
			"target":34962
		},
		{
			"buffer":0,
			"byteLength":2091600,
			"byteOffset":11175232,
			"target":34963
		},
		{
			"buffer":0,
			"byteLength":4190712,
			"byteOffset":13266832,
			"target":34962
		},
		{
			"buffer":0,
			"byteLength":4190712,
			"byteOffset":17457544,
			"target":34962
		},
		{
			"buffer":0,
			"byteLength":2793808,
			"byteOffset":21648256,
			"target":34962
		},
		{
			"buffer":0,
			"byteLength":4190712,
			"byteOffset":24442064,
			"target":34962
		},
		{
			"buffer":0,
			"byteLength":4190712,
			"byteOffset":28632776,
			"target":34962
		},
		{
			"buffer":0,
			"byteLength":2793808,
			"byteOffset":32823488,
			"target":34962
		},
		{
			"buffer":0,
			"byteLength":288,
			"byteOffset":35617296,
			"target":34962
		},
		{
			"buffer":0,
			"byteLength":288,
			"byteOffset":35617584,
			"target":34962
		},
		{
			"buffer":0,
			"byteLength":192,
			"byteOffset":35617872,
			"target":34962
		},
		{
			"buffer":0,
			"byteLength":72,
			"byteOffset":35618064,
			"target":34963
		},
		{
			"buffer":0,
			"byteLength":477600,
			"byteOffset":35618136,
			"target":34962
		},
		{
			"buffer":0,
			"byteLength":477600,
			"byteOffset":36095736,
			"target":34962
		},
		{
			"buffer":0,
			"byteLength":318400,
			"byteOffset":36573336,
			"target":34962
		},
		{
			"buffer":0,
			"byteLength":118800,
			"byteOffset":36891736,
			"target":34963
		},
		{
			"buffer":0,
			"byteLength":4000,
			"byteOffset":37010536
		},
		{
			"buffer":0,
			"byteLength":16000,
			"byteOffset":37014536
		},
		{
			"buffer":0,
			"byteLength":16000,
			"byteOffset":37030536
		},
		{
			"buffer":0,
			"byteLength":16000,
			"byteOffset":37046536
		},
		{
			"buffer":0,
			"byteLength":16000,
			"byteOffset":37062536
		},
		{
			"buffer":0,
			"byteLength":16000,
			"byteOffset":37078536
		}
	],
	"buffers":[
		{
			"byteLength":37094536,
			"uri":"sun.bin"
		}
	]
}
