{
	"asset":{
		"generator":"Khronos glTF Blender I/O v4.3.47",
		"version":"2.0"
	},
	"extensionsUsed":[
		"KHR_materials_specular"
	],
	"scene":0,
	"scenes":[
		{
			"name":"Scene",
			"nodes":[
				13
			]
		}
	],
	"nodes":[
		{
			"name":"helmet1.smd_5"
		},
		{
			"name":"helmet2.smd_6"
		},
		{
			"name":"head_0",
			"rotation":[
				-3.376433799218148e-09,
				-1.2585284139277064e-06,
				-0.024730259552598,
				0.9996941685676575
			],
			"scale":[
				1,
				0.9999999403953552,
				1.0000001192092896
			],
			"translation":[
				0.03360868617892265,
				4.3399683136158274e-07,
				-4.88654805508304e-09
			]
		},
		{
			"children":[
				2
			],
			"name":"neck_1",
			"rotation":[
				-7.5175051961196e-08,
				8.22992262783373e-07,
				0.08571463823318481,
				0.9963197112083435
			],
			"scale":[
				0.9999999403953552,
				1,
				1
			],
			"translation":[
				0.20768176019191742,
				-2.6283785700798035e-05,
				-5.691794768836189e-08
			]
		},
		{
			"children":[
				3
			],
			"name":"spine1_2",
			"rotation":[
				-7.918858102584636e-08,
				6.657371045548643e-07,
				0.05150511488318443,
				0.9986727237701416
			],
			"translation":[
				0.10651290416717529,
				-0.00016402825713157654,
				2.330176052112165e-08
			]
		},
		{
			"children":[
				4
			],
			"name":"spine_3",
			"rotation":[
				-2.029395091085462e-06,
				-1.13848159344343e-06,
				-0.038430627435445786,
				0.9992612600326538
			],
			"translation":[
				0.07679665088653564,
				-8.344647358171642e-05,
				2.712914920266485e-06
			]
		},
		{
			"children":[
				5
			],
			"name":"pelvis_4",
			"rotation":[
				-0.7071067690849304,
				-0.7071067690849304,
				1.0674738177840482e-06,
				1.9921401417377638e-06
			],
			"translation":[
				-0.018268663436174393,
				0.8111980557441711,
				-2.590102299304675e-10
			]
		},
		{
			"children":[
				6
			],
			"name":"GLTF_created_0_rootJoint",
			"rotation":[
				-8.557136332854043e-09,
				2.4203236748121526e-08,
				-4.1422078995684666e-16,
				1
			],
			"translation":[
				0,
				1.4551915228366852e-11,
				0
			]
		},
		{
			"mesh":0,
			"name":"Object_7",
			"skin":0
		},
		{
			"children":[
				0,
				1,
				8,
				7
			],
			"name":"GLTF_created_0"
		},
		{
			"children":[
				9
			],
			"name":"marine_helmet_ARM_7"
		},
		{
			"children":[
				10
			],
			"name":"GLTF_SceneRootNode",
			"rotation":[
				0.70710688829422,
				0,
				0,
				0.7071066498756409
			]
		},
		{
			"children":[
				11
			],
			"name":"root"
		},
		{
			"children":[
				12
			],
			"name":"Sketchfab_model",
			"rotation":[
				-0.70710688829422,
				0,
				0,
				0.7071066498756409
			],
			"translation":[
				0,
				0.00019747018814086914,
				0
			]
		}
	],
	"materials":[
		{
			"doubleSided":true,
			"extensions":{
				"KHR_materials_specular":{
					"specularTexture":{
						"index":0
					}
				}
			},
			"name":"ch_marine_helmet_01",
			"normalTexture":{
				"index":1
			},
			"pbrMetallicRoughness":{
				"baseColorTexture":{
					"index":2
				},
				"metallicRoughnessTexture":{
					"index":3
				}
			}
		}
	],
	"meshes":[
		{
			"name":"Object_0",
			"primitives":[
				{
					"attributes":{
						"POSITION":0,
						"NORMAL":1,
						"TEXCOORD_0":2,
						"TEXCOORD_1":3,
						"TEXCOORD_2":4,
						"TEXCOORD_3":5,
						"JOINTS_0":6,
						"WEIGHTS_0":7
					},
					"indices":8,
					"material":0
				}
			]
		}
	],
	"textures":[
		{
			"sampler":0,
			"source":0
		},
		{
			"sampler":0,
			"source":1
		},
		{
			"sampler":0,
			"source":2
		},
		{
			"sampler":0,
			"source":3
		}
	],
	"images":[
		{
			"mimeType":"image/png",
			"name":"ch_marine_helmet_01_specularf0",
			"uri":"textures/ch_marine_helmet_01_specularf0.png"
		},
		{
			"mimeType":"image/png",
			"name":"ch_marine_helmet_01_normal",
			"uri":"textures/ch_marine_helmet_01_normal.png"
		},
		{
			"mimeType":"image/png",
			"name":"ch_marine_helmet_01_baseColor",
			"uri":"textures/ch_marine_helmet_01_baseColor.png"
		},
		{
			"mimeType":"image/png",
			"name":"ch_marine_helmet_01_metallicRoughness",
			"uri":"textures/ch_marine_helmet_01_metallicRoughness.png"
		}
	],
	"skins":[
		{
			"inverseBindMatrices":9,
			"joints":[
				7,
				6,
				5,
				4,
				3,
				2
			],
			"name":"GLTF_created_0"
		}
	],
	"accessors":[
		{
			"bufferView":0,
			"componentType":5126,
			"count":859,
			"max":[
				0.11287977546453476,
				1.420971393585205,
				0.08881199359893799
			],
			"min":[
				-0.11492793262004852,
				1.2447278499603271,
				-0.08881206810474396
			],
			"type":"VEC3"
		},
		{
			"bufferView":1,
			"componentType":5126,
			"count":859,
			"type":"VEC3"
		},
		{
			"bufferView":2,
			"componentType":5126,
			"count":859,
			"type":"VEC2"
		},
		{
			"bufferView":3,
			"componentType":5126,
			"count":859,
			"type":"VEC2"
		},
		{
			"bufferView":4,
			"componentType":5126,
			"count":859,
			"type":"VEC2"
		},
		{
			"bufferView":5,
			"componentType":5126,
			"count":859,
			"type":"VEC2"
		},
		{
			"bufferView":6,
			"componentType":5121,
			"count":859,
			"type":"VEC4"
		},
		{
			"bufferView":7,
			"componentType":5126,
			"count":859,
			"type":"VEC4"
		},
		{
			"bufferView":8,
			"componentType":5123,
			"count":4308,
			"type":"SCALAR"
		},
		{
			"bufferView":9,
			"componentType":5126,
			"count":6,
			"type":"MAT4"
		}
	],
	"bufferViews":[
		{
			"buffer":0,
			"byteLength":10308,
			"byteOffset":0,
			"target":34962
		},
		{
			"buffer":0,
			"byteLength":10308,
			"byteOffset":10308,
			"target":34962
		},
		{
			"buffer":0,
			"byteLength":6872,
			"byteOffset":20616,
			"target":34962
		},
		{
			"buffer":0,
			"byteLength":6872,
			"byteOffset":27488,
			"target":34962
		},
		{
			"buffer":0,
			"byteLength":6872,
			"byteOffset":34360,
			"target":34962
		},
		{
			"buffer":0,
			"byteLength":6872,
			"byteOffset":41232,
			"target":34962
		},
		{
			"buffer":0,
			"byteLength":3436,
			"byteOffset":48104,
			"target":34962
		},
		{
			"buffer":0,
			"byteLength":13744,
			"byteOffset":51540,
			"target":34962
		},
		{
			"buffer":0,
			"byteLength":8616,
			"byteOffset":65284,
			"target":34963
		},
		{
			"buffer":0,
			"byteLength":384,
			"byteOffset":73900
		}
	],
	"samplers":[
		{
			"magFilter":9729,
			"minFilter":9987
		}
	],
	"buffers":[
		{
			"byteLength":74284,
			"uri":"testnormalmapping.bin"
		}
	]
}
